<?xml version="1.0" encoding="utf-8"?>
<!-- Generator: Adobe Illustrator 19.2.1, SVG Export Plug-In . SVG Version: 6.00 Build 0)  -->
<svg version="1.1" id="Слой_1" xmlns="http://www.w3.org/2000/svg" xmlns:xlink="http://www.w3.org/1999/xlink" x="0px" y="0px"
	 viewBox="0 0 72.2 72" style="enable-background:new 0 0 72.2 72;" xml:space="preserve">
<style type="text/css">
	.st0{fill:#CDD3DD;}
	.st1{fill:#74BA92;}
	.st2{fill:#68AE81;}
	.st3{fill:#D04E5E;}
	.st4{fill:#B75051;}
	.st5{fill:#FFFFFF;}
	.st6{fill:#E9F3FC;}
	.st7{fill:#6D97D1;}
	.st8{fill:#5688C7;}
	.st9{fill:#91C7A8;}
	.st10{fill:#A5C3E1;}
	.st11{fill:#E099A9;}
</style>
<path class="st0" d="M70.1,48c-0.2,0.7-0.5,1.4-0.8,2.1c-0.9,2.2-2,4.4-3.3,6.3c-0.9,1.4-1.9,2.6-3,3.8c0,0,0,0,0,0
	c-1.3,1.5-2.7,2.8-4.3,4c-0.9,0.7-1.8,1.3-2.7,2c-1.6,1.1-3.4,2-5.2,2.8h0c-1,0.5-2.1,0.9-3.2,1.2c-4,1.2-7.9,1.8-11.6,1.8h-0.2
	c-5.1,0-9.9-1.1-14.2-3c-1.3-0.6-2.6-1.3-3.9-2c-1.4-0.8-2.7-1.7-4-2.7c-0.6-0.5-1.2-1-1.8-1.5c-0.4-0.4-0.9-0.8-1.3-1.2
	C10.1,61,9.6,60.4,9,59.8c0,0-0.1-0.1-0.1-0.1c-1-1.2-2-2.5-2.9-3.8c-0.3-0.4-0.5-0.8-0.8-1.3c-0.9-1.4-1.6-2.9-2.3-4.5
	c-1-2.3-1.7-4.6-2.2-7.1c0,0,0,0,0,0c-0.9-4.5-0.9-9.3,0-14.2c0.2-1.2,0.5-2.4,0.8-3.5c0.3-1.2,0.7-2.4,1.2-3.6
	c0.7-1.8,1.5-3.5,2.5-5.1c0.2-0.4,0.5-0.8,0.8-1.2c0.5-0.7,1-1.5,1.6-2.1c0.1-0.1,0.2-0.3,0.3-0.4c0.3-0.4,0.7-0.9,1.1-1.3
	c1.4-1.5,2.8-2.9,4.5-4.1c2.2-1.7,4.7-3.1,7.3-4.2C20.9,3.1,21,3,21.1,3c2.5-1,5-1.8,7.5-2.3C31.1,0.2,33.6,0,36,0
	c5.1,0,10,1.1,14.4,3c2.7,1.2,5.2,2.6,7.4,4.4c1.9,1.4,3.6,3,5.2,4.8c1.1,1.2,2.1,2.5,3,3.9c1.2,1.7,2.2,3.6,3,5.5
	C72.4,29.4,73.1,38.5,70.1,48z"/>
<path class="st1" d="M70.6,7.4H28.1c-0.5,0-0.9,0.2-1.2,0.5l-6.4,5.7c-0.5,0.5-0.5,1.3,0,1.8l6.2,5.6c0.4,0.4,1,0.6,1.6,0.6h42.3
	c0.8,0,1.5-0.7,1.5-1.5V8.8C72.1,8,71.5,7.4,70.6,7.4z"/>
<path class="st2" d="M29.8,20.2V8.8c0-0.8,0.7-1.5,1.5-1.5h-3.2c-0.5,0-0.9,0.2-1.2,0.5l-6.4,5.7c-0.5,0.5-0.5,1.3,0,1.8l6.2,5.6
	c0.4,0.4,1,0.6,1.6,0.6h3C30.5,21.6,29.8,21,29.8,20.2z"/>
<path class="st3" d="M70.7,50.1H28.2c-0.5,0-0.9,0.2-1.2,0.5l-6.4,5.7c-0.5,0.5-0.5,1.3,0,1.8l6.2,5.6c0.4,0.4,1,0.6,1.6,0.6h42.3
	c0.8,0,1.5-0.7,1.5-1.5V51.5C72.2,50.7,71.5,50.1,70.7,50.1z"/>
<path class="st4" d="M29.9,62.8V51.5c0-0.8,0.7-1.5,1.5-1.5h-3.2c-0.5,0-0.9,0.2-1.2,0.5l-6.4,5.7c-0.5,0.5-0.5,1.3,0,1.8l6.2,5.6
	c0.4,0.4,1,0.6,1.6,0.6h3C30.6,64.3,29.9,63.6,29.9,62.8z"/>
<path class="st5" d="M54.5,43h11.3c0.8,0,1.5-0.7,1.5-1.5V30.2c0-0.8-0.7-1.5-1.5-1.5H54.5c-0.8,0-1.5,0.7-1.5,1.5v11.3
	C53.1,42.3,53.7,43,54.5,43z"/>
<path class="st6" d="M60.2,41.5V30.2c0-0.8,0.7-1.5,1.5-1.5h-7.1c-0.8,0-1.5,0.7-1.5,1.5v11.3c0,0.8,0.7,1.5,1.5,1.5h7.1
	C60.8,43,60.2,42.3,60.2,41.5z"/>
<path class="st7" d="M46.4,36.7l-6.2,5.6c-0.4,0.4-1,0.6-1.6,0.6H0.7c-0.9-4.5-0.9-9.3,0-14.2h38.1c0.5,0,0.9,0.2,1.3,0.5l6.4,5.8
	C46.9,35.4,46.9,36.3,46.4,36.7z"/>
<path class="st8" d="M6,43H0.7c-0.9-4.5-0.9-9.3,0-14.2H6c-0.8,0-1.5,0.7-1.5,1.5v11.3C4.5,42.3,5.2,43,6,43z"/>
<path class="st9" d="M61.1,13.6h-8.2c-0.7,0-1.2-0.5-1.2-1.2c0-0.7,0.5-1.2,1.2-1.2h8.2c0.7,0,1.2,0.5,1.2,1.2
	C62.3,13.1,61.8,13.6,61.1,13.6z"/>
<path class="st9" d="M44.5,13.6h-6c-0.7,0-1.2-0.5-1.2-1.2c0-0.7,0.5-1.2,1.2-1.2h6c0.7,0,1.2,0.5,1.2,1.2
	C45.7,13.1,45.2,13.6,44.5,13.6z"/>
<path class="st9" d="M49,13.6h-0.5c-0.7,0-1.2-0.5-1.2-1.2c0-0.7,0.5-1.2,1.2-1.2H49c0.7,0,1.2,0.5,1.2,1.2
	C50.2,13.1,49.7,13.6,49,13.6z"/>
<path class="st9" d="M34.8,13.6H33c-0.7,0-1.2-0.5-1.2-1.2c0-0.7,0.5-1.2,1.2-1.2h1.8c0.7,0,1.2,0.5,1.2,1.2
	C35.9,13.1,35.4,13.6,34.8,13.6z"/>
<path class="st9" d="M55.5,17.7h-8.2c-0.7,0-1.2-0.5-1.2-1.2s0.5-1.2,1.2-1.2h8.2c0.7,0,1.2,0.5,1.2,1.2S56.2,17.7,55.5,17.7z"/>
<path class="st9" d="M43.5,17.7h-6c-0.7,0-1.2-0.5-1.2-1.2s0.5-1.2,1.2-1.2h6c0.7,0,1.2,0.5,1.2,1.2S44.2,17.7,43.5,17.7z"/>
<path class="st9" d="M33.5,17.7H33c-0.7,0-1.2-0.5-1.2-1.2s0.5-1.2,1.2-1.2h0.5c0.7,0,1.2,0.5,1.2,1.2S34.2,17.7,33.5,17.7z"/>
<path class="st9" d="M61.1,17.7h-1.8c-0.7,0-1.2-0.5-1.2-1.2s0.5-1.2,1.2-1.2h1.8c0.7,0,1.2,0.5,1.2,1.2S61.8,17.7,61.1,17.7z"/>
<path class="st7" d="M61,40.5c-0.5,0-1-0.2-1.4-0.6l-3.5-3.5c-0.8-0.8-0.8-2.1,0-2.8c0.8-0.8,2.1-0.8,2.8,0l2.1,2.1l4.9-4.9
	c0.8-0.8,2.1-0.8,2.8,0c0.8,0.8,0.8,2.1,0,2.8l-6.3,6.3C62,40.3,61.5,40.5,61,40.5z"/>
<path class="st10" d="M32.4,35h-8.2c-0.7,0-1.2-0.5-1.2-1.2c0-0.7,0.5-1.2,1.2-1.2h8.2c0.7,0,1.2,0.5,1.2,1.2
	C33.6,34.5,33.1,35,32.4,35z"/>
<path class="st10" d="M15.8,35h-6c-0.7,0-1.2-0.5-1.2-1.2c0-0.7,0.5-1.2,1.2-1.2h6c0.7,0,1.2,0.5,1.2,1.2C17,34.5,16.5,35,15.8,35z"
	/>
<path class="st10" d="M20.3,35h-0.5c-0.7,0-1.2-0.5-1.2-1.2c0-0.7,0.5-1.2,1.2-1.2h0.5c0.7,0,1.2,0.5,1.2,1.2
	C21.5,34.5,21,35,20.3,35z"/>
<path class="st10" d="M6,35H4.3c-0.7,0-1.2-0.5-1.2-1.2c0-0.7,0.5-1.2,1.2-1.2H6c0.7,0,1.2,0.5,1.2,1.2C7.2,34.5,6.7,35,6,35z"/>
<path class="st10" d="M26.8,39.1h-8.2c-0.7,0-1.2-0.5-1.2-1.2c0-0.7,0.5-1.2,1.2-1.2h8.2c0.7,0,1.2,0.5,1.2,1.2
	C28,38.5,27.4,39.1,26.8,39.1z"/>
<path class="st10" d="M14.8,39.1h-6c-0.7,0-1.2-0.5-1.2-1.2c0-0.7,0.5-1.2,1.2-1.2h6c0.7,0,1.2,0.5,1.2,1.2
	C16,38.5,15.5,39.1,14.8,39.1z"/>
<path class="st10" d="M4.8,39.1H4.3c-0.7,0-1.2-0.5-1.2-1.2c0-0.7,0.5-1.2,1.2-1.2h0.5c0.7,0,1.2,0.5,1.2,1.2
	C6,38.5,5.4,39.1,4.8,39.1z"/>
<path class="st10" d="M32.4,39.1h-1.8c-0.7,0-1.2-0.5-1.2-1.2c0-0.7,0.5-1.2,1.2-1.2h1.8c0.7,0,1.2,0.5,1.2,1.2
	C33.6,38.5,33.1,39.1,32.4,39.1z"/>
<path class="st11" d="M61.2,56.3H53c-0.7,0-1.2-0.5-1.2-1.2s0.5-1.2,1.2-1.2h8.2c0.7,0,1.2,0.5,1.2,1.2S61.9,56.3,61.2,56.3z"/>
<path class="st11" d="M44.6,56.3h-6c-0.7,0-1.2-0.5-1.2-1.2s0.5-1.2,1.2-1.2h6c0.7,0,1.2,0.5,1.2,1.2S45.3,56.3,44.6,56.3z"/>
<path class="st11" d="M49.1,56.3h-0.5c-0.7,0-1.2-0.5-1.2-1.2s0.5-1.2,1.2-1.2h0.5c0.7,0,1.2,0.5,1.2,1.2S49.8,56.3,49.1,56.3z"/>
<path class="st11" d="M34.8,56.3h-1.8c-0.7,0-1.2-0.5-1.2-1.2s0.5-1.2,1.2-1.2h1.8c0.7,0,1.2,0.5,1.2,1.2S35.5,56.3,34.8,56.3z"/>
<path class="st11" d="M55.6,60.4h-8.2c-0.7,0-1.2-0.5-1.2-1.2c0-0.7,0.5-1.2,1.2-1.2h8.2c0.7,0,1.2,0.5,1.2,1.2
	C56.8,59.9,56.2,60.4,55.6,60.4z"/>
<path class="st11" d="M43.6,60.4h-6c-0.7,0-1.2-0.5-1.2-1.2c0-0.7,0.5-1.2,1.2-1.2h6c0.7,0,1.2,0.5,1.2,1.2
	C44.8,59.9,44.3,60.4,43.6,60.4z"/>
<path class="st11" d="M33.6,60.4h-0.5c-0.7,0-1.2-0.5-1.2-1.2c0-0.7,0.5-1.2,1.2-1.2h0.5c0.7,0,1.2,0.5,1.2,1.2
	C34.8,59.9,34.2,60.4,33.6,60.4z"/>
<path class="st11" d="M61.2,60.4h-1.8c-0.7,0-1.2-0.5-1.2-1.2c0-0.7,0.5-1.2,1.2-1.2h1.8c0.7,0,1.2,0.5,1.2,1.2
	C62.4,59.9,61.9,60.4,61.2,60.4z"/>
<path class="st8" d="M62.1,34.6L61,35.7l-2.1-2.1c-0.8-0.8-2.1-0.8-2.8,0c-0.8,0.8-0.8,2.1,0,2.8l3.5,3.5c0.4,0.4,0.9,0.6,1.4,0.6
	s1-0.2,1.4-0.6l2.3-2.3C62.8,38.5,60.9,36.4,62.1,34.6z"/>
<path class="st5" d="M16,8.8v11.3c0,0.8-0.7,1.5-1.5,1.5H2.7c0.7-1.8,1.5-3.5,2.5-5.1c0.2-0.4,0.5-0.8,0.8-1.2
	c0.5-0.7,1-1.5,1.6-2.1c0.1-0.1,0.2-0.3,0.3-0.4c0.3-0.4,0.7-0.9,1.1-1.3c1.4-1.5,2.8-2.9,4.5-4.1h1.1C15.4,7.4,16,8,16,8.8z"/>
<path class="st6" d="M9.4,21.6H2.7c0.7-1.8,1.5-3.5,2.5-5.1c0.2-0.4,0.5-0.8,0.8-1.2c0.5-0.7,1-1.5,1.6-2.1c0.1-0.1,0.2-0.3,0.3-0.4
	v7.4C7.9,21,8.6,21.6,9.4,21.6z"/>
<path class="st1" d="M16.5,12.3L16,12.7l-3.6,3.6l-2.3,2.3c-0.4,0.4-0.9,0.6-1.4,0.6c-0.3,0-0.6-0.1-0.8-0.2
	c-0.2-0.1-0.4-0.2-0.6-0.4l-2.1-2.1c0.2-0.4,0.5-0.8,0.8-1.2c0.5-0.7,1-1.5,1.6-2.1l1.2,1.2l1.1-1.1l3.8-3.8
	c0.7-0.6,1.6-0.8,2.4-0.3c0.2,0.1,0.3,0.2,0.5,0.3C17.3,10.2,17.3,11.5,16.5,12.3z"/>
<path class="st2" d="M12.4,16.3l-2.3,2.3c-0.4,0.4-0.9,0.6-1.4,0.6c-0.3,0-0.6-0.1-0.8-0.2c-0.2-0.1-0.4-0.2-0.6-0.4l-2.1-2.1
	c0.2-0.4,0.5-0.8,0.8-1.2c0.5-0.7,1-1.5,1.6-2.1l1.2,1.2l1.1-1.1C8.7,15,10.5,17.2,12.4,16.3z"/>
<path class="st5" d="M16,51.5v11.3c0,0.8-0.7,1.5-1.5,1.5h-0.8c-0.6-0.5-1.2-1-1.8-1.5c-0.4-0.4-0.9-0.8-1.3-1.2
	C10.1,61,9.6,60.4,9,59.8c0,0-0.1-0.1-0.1-0.1c-1-1.2-2-2.5-2.9-3.8c-0.3-0.4-0.5-0.8-0.8-1.3c-0.9-1.4-1.6-2.9-2.3-4.5
	c0.1,0,0.2,0,0.4,0h11.3C15.4,50.1,16,50.7,16,51.5z"/>
<path class="st6" d="M10.4,50.1c-0.8,0-1.5,0.7-1.5,1.5v8.2c-1-1.2-2-2.5-2.9-3.8c-0.3-0.4-0.5-0.8-0.8-1.3
	c-0.9-1.4-1.6-2.9-2.3-4.5c0.1,0,0.2,0,0.4,0H10.4z"/>
<path class="st3" d="M17.5,55l-6.3,6.3c-0.1,0.1-0.3,0.3-0.5,0.3C10.1,61,9.6,60.4,9,59.8c0,0-0.1-0.1-0.1-0.1c-1-1.2-2-2.5-2.9-3.8
	c-0.3-0.4-0.5-0.8-0.8-1.3C6,54.2,7,54.3,7.6,54.9l1.3,1.3L9.7,57l1.1-1.1l3.8-3.8c0.4-0.4,0.9-0.6,1.4-0.6c0.5,0,1,0.2,1.5,0.6
	C18.3,52.9,18.3,54.2,17.5,55z"/>
<path class="st4" d="M13.4,59l-2.3,2.3c-0.1,0.1-0.3,0.3-0.5,0.3C10.1,61,9.6,60.4,9,59.8c0,0-0.1-0.1-0.1-0.1c-1-1.2-2-2.5-2.9-3.8
	c-0.3-0.4-0.5-0.8-0.8-1.3C6,54.2,7,54.3,7.6,54.9l1.3,1.3L9.7,57l1.1-1.1C9.7,57.7,11.5,59.9,13.4,59z"/>
</svg>
