<?xml version="1.0" encoding="utf-8"?>
<!-- Generator: Adobe Illustrator 19.2.1, SVG Export Plug-In . SVG Version: 6.00 Build 0)  -->
<svg version="1.1" id="Слой_1" xmlns="http://www.w3.org/2000/svg" xmlns:xlink="http://www.w3.org/1999/xlink" x="0px" y="0px"
	 viewBox="0 0 72 72" style="enable-background:new 0 0 72 72;" xml:space="preserve">
<style type="text/css">
	.st0{fill:#CDD3DD;}
	.st1{fill:#ECD586;}
	.st2{fill:#D04E5E;}
	.st3{fill:#636595;}
	.st4{fill:#D888B7;}
	.st5{fill:#C75FA1;}
	.st6{fill:#4B4D74;}
	.st7{fill:#CD6C6B;}
	.st8{fill:#E3A846;}
</style>
<path class="st0" d="M72,36c0,19.9-16.1,36-36,36S0,55.9,0,36S16.1,0,36,0S72,16.1,72,36z"/>
<path class="st1" d="M34.6,22.6c-0.2,0-0.4-0.2-0.4-0.5v-9.2c0-1-0.8-1.8-1.8-1.8H5.6c-1,0-1.8,0.8-1.8,1.8v28.7h11.2
	c0.2,0,0.3-0.1,0.3-0.3c0.2-1.9,1.8-3.4,3.7-3.4c2,0,3.6,1.5,3.7,3.4c0,0.2,0.2,0.3,0.3,0.3h11.2V30.6c0-0.3,0.2-0.6,0.5-0.6
	c1.8-0.3,3.2-1.8,3.2-3.7C38,24.3,36.5,22.8,34.6,22.6z"/>
<path class="st2" d="M33.9,53c0.2,0,0.3-0.2,0.3-0.3V41.5H23.3c-0.3,0-0.6-0.2-0.6-0.5c-0.3-1.8-1.8-3.2-3.7-3.2
	c-1.9,0-3.5,1.5-3.7,3.3c0,0.2-0.2,0.4-0.5,0.4H3.7V52c5.6,11.4,17.1,19.3,30.5,20V60.8c0-0.2-0.1-0.3-0.3-0.3
	c-1.9-0.2-3.4-1.8-3.4-3.7C30.5,54.8,32,53.2,33.9,53z"/>
<path class="st3" d="M64.7,57.7V43.3c0-1-0.8-1.8-1.8-1.8h-9.4c-0.2,0-0.3,0.1-0.3,0.3c-0.2,1.9-1.8,3.4-3.7,3.4
	c-2,0-3.6-1.5-3.7-3.4c0-0.2-0.2-0.3-0.3-0.3H34.2v10.9c0,0.3-0.2,0.6-0.5,0.6c-1.8,0.3-3.2,1.8-3.2,3.7c0,1.9,1.5,3.5,3.3,3.7
	c0.2,0,0.4,0.2,0.4,0.5v11c0.6,0,1.2,0,1.8,0C47.7,72,58.1,66.4,64.7,57.7z"/>
<path class="st4" d="M60.5,34.6c0-0.2,0.2-0.4,0.5-0.4h9.2c1,0,1.8-0.8,1.8-1.8V5.6c0-1-0.8-1.8-1.8-1.8H43.3c-1,0-1.8,0.8-1.8,1.8
	v9.4c0,0.2,0.1,0.3,0.3,0.3c1.9,0.2,3.4,1.8,3.4,3.7c0,2-1.5,3.6-3.4,3.7c-0.2,0-0.3,0.2-0.3,0.3v9.3c0,1,0.8,1.8,1.8,1.8h9.1
	c0.3,0,0.6,0.2,0.6,0.5c0.3,1.8,1.8,3.2,3.7,3.2C58.7,38,60.3,36.5,60.5,34.6z"/>
<path class="st5" d="M47.5,32.8V5.1c0-0.6,0.3-1.1,0.7-1.4h-4.8c-1,0-1.8,0.8-1.8,1.8v9.4c0,0.2,0.1,0.3,0.3,0.3
	c1.9,0.2,3.4,1.8,3.4,3.7c0,2-1.5,3.6-3.4,3.7c-0.2,0-0.3,0.2-0.3,0.3v9.3c0,1,0.8,1.8,1.8,1.8h4.8C47.7,33.9,47.5,33.4,47.5,32.8z"
	/>
<path class="st6" d="M40.2,70.6V42.9c0-0.6,0.3-1.1,0.7-1.4h-6.6v10.9c0,0.3-0.2,0.6-0.5,0.6c-1.8,0.3-3.2,1.8-3.2,3.7
	c0,1.9,1.5,3.5,3.3,3.7c0.2,0,0.4,0.2,0.4,0.5v11c0.6,0,1.2,0,1.8,0c1.5,0,3.1-0.1,4.6-0.3C40.3,71.4,40.2,71,40.2,70.6z"/>
<path class="st7" d="M9.7,42.9c0-0.6,0.3-1.1,0.7-1.4H3.7V52c1.6,3.2,3.6,6,5.9,8.6V42.9z"/>
<path class="st8" d="M9.7,40.1V12.4c0-0.6,0.3-1.1,0.7-1.4H5.6c-1,0-1.8,0.8-1.8,1.8v28.7h6.6C10,41.2,9.7,40.7,9.7,40.1z"/>
</svg>
