<svg width="65" height="100" fill="none" xmlns="http://www.w3.org/2000/svg"><g opacity=".1" fill="#002B5D"><path d="M100 50.057C100 22.447 77.57 0 49.978 0h-1.147c-.828.191-1.593.446-2.422.638l-.573.191c-.828.255-1.657.51-2.421.829-.064 0-.128.064-.192.064-.764.255-1.465.574-2.23.892-.191.064-.382.128-.51.256-.764.318-1.529.701-2.294 1.084-.063.063-.127.063-.255.127-.7.383-1.338.702-2.039 1.084-.19.064-.318.191-.51.255l-2.102 1.34c-.064.063-.191.127-.255.19-.637.447-1.275.83-1.848 1.276-.128.128-.319.191-.446.319-.637.51-1.338 1.02-1.976 1.53-.063.064-.19.128-.255.255-.573.51-1.146.957-1.656 1.467l-.383.383c-.573.574-1.21 1.147-1.784 1.785l-.255.255c-.51.51-1.02 1.084-1.465 1.658-.128.128-.255.255-.319.383l-1.53 1.913c-.063.127-.19.255-.254.319-.446.574-.829 1.147-1.275 1.785-.127.128-.19.319-.318.446l-1.338 2.105c-.064.127-.128.255-.255.382-.383.638-.701 1.276-1.02 1.85-.064.127-.191.319-.255.446a24.067 24.067 0 0 0-1.083 2.232c0 .064-.064.127-.064.127v-.063c.191-.32.383-.574.51-.83.127-.19.255-.382.382-.51l.128-.127c.191-.255.382-.574.573-.829.128-.191.319-.446.446-.638.255-.319.446-.574.701-.829.191-.191.383-.446.574-.637.191-.255.446-.51.637-.765.191-.192.382-.447.574-.638.254-.255.51-.51.7-.765l.192-.192.382-.382.828-.83.51-.446c.446-.382.892-.829 1.402-1.211l.446-.32c.319-.254.701-.573 1.02-.828.127-.128.255-.191.382-.319l.191-.128c.319-.19.637-.446.892-.637l.637-.447c.32-.19.638-.382.893-.573.255-.128.446-.256.7-.383l.956-.574c.255-.127.447-.255.701-.383.319-.19.701-.318 1.02-.51l.7-.318c.383-.192.766-.383 1.148-.51l.573-.256c.574-.255 1.147-.446 1.72-.701l.256-.064c.51-.191 1.02-.383 1.53-.51l.636-.191a8.496 8.496 0 0 1 1.211-.32l.701-.19c.382-.064.765-.192 1.147-.256.255-.063.51-.127.765-.127l1.147-.191c.318-.064.573-.064.764-.128.383-.064.765-.127 1.211-.127.319-.064.51-.064.765-.064.446-.064.892-.064 1.338-.128l.637-.064c.637 0 1.338-.063 1.975-.063 22.686 0 41.101 18.428 41.101 41.13 0 2.742-.254 5.42-.828 8.098v.064c-.127 1.02-.319 2.04-.51 3.06 0 .128-.064.32-.064.447a48.873 48.873 0 0 1-.7 2.934c-.064.19-.128.382-.128.573-.255.957-.573 1.913-.828 2.806-.064.191-.128.319-.191.51-.319.957-.701 1.913-1.084 2.87 0 .064-.063.127-.063.191-.383.893-.765 1.786-1.211 2.678a3.102 3.102 0 0 0-.191.447 32.64 32.64 0 0 1-1.402 2.55c-.128.192-.191.32-.319.51-.51.83-1.02 1.659-1.53 2.424-.127.127-.19.319-.318.446-.573.83-1.147 1.594-1.72 2.423l-.191.192c-.574.765-1.211 1.53-1.848 2.231-.064.128-.192.192-.255.32a63.583 63.583 0 0 1-1.976 2.104l-.382.382c-.7.702-1.402 1.34-2.103 1.977l-.382.383-2.294 1.913a.879.879 0 0 1-.255.19c-.765.575-1.593 1.149-2.358 1.723-.127.063-.191.127-.318.19a34.303 34.303 0 0 1-2.55 1.595c-.127.064-.318.191-.445.255-.829.51-1.72.957-2.613 1.403-.127.064-.319.128-.51.255-.892.447-1.848.83-2.74 1.212 0 0-.063 0-.063.064C82.03 95.204 100 74.48 100 50.056z"/><path d="M59.517 97.069c.764-.32 1.529-.701 2.294-1.084.063-.064.127-.064.255-.127.7-.383 1.338-.701 2.039-1.084.19-.063.318-.19.51-.255l2.102-1.338c.064-.063.192-.127.255-.19.637-.447 1.275-.83 1.848-1.275.128-.128.319-.192.446-.32.637-.509 1.338-1.019 1.976-1.528.063-.064.19-.128.254-.255.574-.51 1.148-.956 1.657-1.466l.383-.383c.573-.573 1.21-1.147 1.784-1.784l.255-.255c.51-.51 1.02-1.083 1.465-1.657.128-.127.255-.255.319-.382l1.53-1.912c.063-.127.19-.255.254-.318.446-.574.829-1.148 1.275-1.785.127-.127.19-.318.318-.446l1.338-2.103c.064-.127.128-.255.255-.382.383-.637.701-1.275 1.02-1.848.064-.128.191-.319.255-.446.382-.701.764-1.466 1.083-2.23 0-.064.064-.128.064-.128v.064c-.191.318-.383.573-.51.828-.127.191-.255.382-.382.51l-.128.127c-.191.255-.382.574-.573.829-.128.19-.319.446-.446.637-.255.319-.446.573-.701.828-.191.192-.383.446-.574.638-.191.254-.446.51-.637.764-.191.191-.382.446-.574.638-.254.255-.51.51-.7.764l-.192.191-.382.383-.828.828-.51.446c-.446.383-.892.829-1.402 1.211l-.446.319c-.319.255-.701.573-1.02.828-.127.128-.255.191-.382.319l-.191.127c-.319.191-.637.446-.892.638l-.638.446c-.318.19-.637.382-.892.573-.255.128-.446.255-.7.383-.32.19-.638.382-.956.573-.255.128-.447.255-.701.382-.319.192-.701.32-1.02.51l-.7.319c-.383.191-.766.382-1.148.51l-.573.255c-.574.255-1.147.446-1.72.7l-.256.064c-.51.192-1.02.383-1.53.51l-.636.191a8.491 8.491 0 0 1-1.211.319l-.701.191c-.382.064-.765.191-1.147.255-.255.064-.51.128-.765.128l-1.147.19c-.318.064-.573.064-.764.128-.383.064-.765.128-1.211.128-.319.063-.51.063-.765.063-.446.064-.892.064-1.338.128l-.637.064c-.637 0-1.338.063-1.975.063-22.686 0-41.101-18.417-41.101-41.103 0-2.74.254-5.417.828-8.094v-.063c.127-1.02.319-2.04.51-3.06 0-.127.063-.318.063-.445.192-.956.447-1.976.701-2.932.064-.191.128-.382.128-.573.255-.956.573-1.912.828-2.804.064-.191.128-.319.191-.51.319-.956.701-1.912 1.084-2.868 0-.064.063-.127.063-.191.383-.892.765-1.784 1.211-2.676.064-.128.128-.255.191-.447.446-.892.892-1.72 1.402-2.549.128-.19.191-.318.319-.51.51-.828 1.02-1.656 1.53-2.421.127-.128.19-.319.318-.446.573-.829 1.147-1.593 1.72-2.422l.191-.19a31.15 31.15 0 0 1 1.848-2.231c.064-.128.192-.191.255-.319a63.52 63.52 0 0 1 1.976-2.103l.382-.382c.7-.701 1.402-1.339 2.103-1.976l.382-.382 2.294-1.912c.064-.064.128-.127.255-.191.765-.574 1.593-1.147 2.358-1.72.127-.065.191-.128.318-.192a34.319 34.319 0 0 1 2.55-1.593c.127-.064.318-.191.445-.255.829-.51 1.72-.956 2.613-1.402.127-.064.319-.128.51-.255.892-.446 1.848-.828 2.74-1.21 0 0 .063 0 .063-.064C17.97 4.857 0 25.567 0 49.975 0 77.568 22.43 100 50.022 100h1.147c.828-.191 1.593-.446 2.422-.637l.573-.192c.828-.254 1.657-.51 2.421-.828.064 0 .128-.064.192-.064.764-.254 1.465-.573 2.23-.892.191-.127.382-.255.51-.318z"/></g></svg>