<svg width="166" height="166" fill="none" xmlns="http://www.w3.org/2000/svg"><g opacity=".5" fill="#FF8900"><path d="M166 83.095C166 37.261 128.766 0 82.963 0H81.06c-1.375.318-2.644.741-4.02 1.059l-.951.317c-1.375.424-2.75.847-4.02 1.376-.106 0-.211.106-.317.106-1.27.423-2.433.953-3.703 1.482-.317.106-.634.212-.846.423-1.269.53-2.538 1.165-3.808 1.8-.105.106-.211.106-.423.212-1.163.635-2.221 1.164-3.385 1.8-.317.105-.529.317-.846.423-1.164.74-2.327 1.482-3.49 2.223-.106.105-.318.211-.424.317-1.058.741-2.115 1.376-3.067 2.117-.212.212-.53.318-.74.53-1.059.846-2.222 1.693-3.28 2.54-.106.106-.317.212-.423.423-.952.847-1.904 1.588-2.75 2.435l-.635.635c-.952.953-2.01 1.905-2.962 2.964l-.423.423c-.846.847-1.693 1.8-2.433 2.753-.212.211-.423.423-.529.635l-2.539 3.175c-.105.212-.317.424-.423.53-.74.952-1.375 1.905-2.115 2.964-.212.211-.318.529-.53.74l-2.22 3.494c-.106.211-.212.423-.424.635-.634 1.058-1.163 2.117-1.692 3.07-.106.211-.317.529-.423.74a39.998 39.998 0 0 0-1.798 3.706c0 .105-.106.211-.106.211v-.106c.317-.529.634-.952.846-1.376.212-.317.423-.635.635-.847l.211-.211c.318-.424.635-.953.952-1.376.212-.318.53-.741.74-1.059.424-.53.741-.953 1.164-1.376.318-.318.635-.741.952-1.059.318-.423.74-.846 1.058-1.27.317-.317.635-.74.952-1.058.423-.424.846-.847 1.164-1.27l.317-.318.635-.635 1.375-1.376.846-.741c.74-.636 1.48-1.377 2.327-2.012l.74-.529c.53-.423 1.164-.953 1.693-1.376.212-.212.423-.318.635-.53l.317-.211c.529-.317 1.058-.74 1.481-1.058l1.058-.741c.529-.318 1.058-.636 1.48-.953.424-.212.741-.424 1.164-.635l1.587-.953c.423-.212.74-.423 1.164-.635.529-.318 1.163-.53 1.692-.847l1.164-.53c.634-.317 1.269-.634 1.904-.846l.952-.423c.952-.424 1.904-.741 2.856-1.165l.423-.106c.846-.317 1.692-.635 2.538-.846l1.058-.318c.635-.212 1.375-.424 2.01-.53l1.164-.317c.634-.106 1.269-.317 1.904-.423.423-.106.846-.212 1.269-.212l1.904-.318c.529-.106.952-.106 1.27-.211.634-.106 1.269-.212 2.01-.212.528-.106.845-.106 1.269-.106.74-.106 1.48-.106 2.22-.212l1.059-.105c1.058 0 2.221-.106 3.279-.106 37.657 0 68.227 30.592 68.227 68.276 0 4.551-.423 8.997-1.375 13.443v.106c-.211 1.694-.529 3.387-.846 5.081 0 .212-.106.529-.106.741-.317 1.588-.74 3.281-1.163 4.869-.106.318-.212.635-.212.953-.423 1.588-.952 3.175-1.375 4.657-.106.318-.212.53-.317.847-.529 1.588-1.164 3.176-1.799 4.764 0 .105-.105.211-.105.317-.635 1.482-1.27 2.964-2.01 4.446-.106.212-.212.423-.318.741a53.749 53.749 0 0 1-2.327 4.234c-.211.318-.317.529-.529.847-.846 1.376-1.692 2.752-2.538 4.022-.212.212-.318.53-.529.741-.952 1.377-1.904 2.647-2.856 4.023l-.318.317a51.476 51.476 0 0 1-3.067 3.705c-.106.212-.317.318-.423.53-1.058 1.164-2.222 2.434-3.279 3.493l-.635.635c-1.164 1.164-2.327 2.223-3.491 3.281l-.634.636-3.808 3.175c-.106.106-.212.212-.424.318-1.269.952-2.644 1.905-3.913 2.858-.212.106-.318.211-.529.317a56.882 56.882 0 0 1-4.232 2.647c-.211.106-.528.317-.74.423-1.375.847-2.856 1.588-4.337 2.329-.211.106-.529.212-.846.423-1.481.741-3.068 1.376-4.549 2.012 0 0-.105 0-.105.105C136.17 158.04 166 123.637 166 83.096z"/><path d="M98.798 161.134c1.269-.529 2.538-1.164 3.808-1.799.106-.105.211-.105.423-.211 1.163-.635 2.221-1.164 3.385-1.798.317-.106.529-.318.846-.424l3.491-2.221c.106-.106.317-.212.423-.317 1.058-.741 2.115-1.376 3.067-2.116.212-.212.529-.318.741-.529 1.058-.846 2.221-1.693 3.279-2.539.106-.106.317-.212.423-.423.952-.846 1.904-1.587 2.75-2.433l.635-.635c.952-.952 2.01-1.904 2.962-2.962l.423-.423a30.093 30.093 0 0 0 2.433-2.751c.212-.211.423-.423.529-.634l2.539-3.174c.105-.211.317-.423.423-.529.74-.952 1.375-1.904 2.115-2.962.212-.211.318-.529.529-.74l2.221-3.491c.106-.212.212-.423.424-.635.634-1.058 1.163-2.116 1.692-3.068.106-.211.317-.529.423-.74a39.646 39.646 0 0 0 1.798-3.703c0-.106.106-.211.106-.211v.105c-.317.529-.634.953-.846 1.376-.212.317-.423.634-.635.846l-.211.212c-.318.423-.635.952-.952 1.375-.212.317-.529.74-.741 1.058-.423.529-.74.952-1.163 1.375-.318.317-.635.74-.952 1.058-.318.423-.741.846-1.058 1.269-.317.317-.635.741-.952 1.058-.423.423-.846.846-1.164 1.269l-.317.318-.635.635-1.375 1.375-.846.74c-.741.635-1.481 1.375-2.327 2.01l-.741.529c-.529.423-1.163.952-1.692 1.375-.212.212-.423.318-.635.529l-.317.212c-.529.317-1.058.74-1.481 1.058l-1.058.74c-.529.318-1.058.635-1.481.952-.423.212-.74.423-1.163.635l-1.587.952c-.423.212-.74.423-1.164.635-.528.317-1.163.529-1.692.846l-1.164.529c-.634.317-1.269.635-1.904.846l-.952.423c-.952.424-1.904.741-2.856 1.164l-.423.106c-.846.317-1.692.635-2.538.846l-1.058.317c-.635.212-1.375.424-2.01.529l-1.164.318c-.634.106-1.269.317-1.904.423-.423.106-.846.212-1.269.212l-1.904.317c-.529.106-.952.106-1.27.211-.634.106-1.269.212-2.01.212-.528.106-.845.106-1.269.106-.74.106-1.48.106-2.22.211l-1.059.106c-1.058 0-2.221.106-3.279.106-37.657 0-68.227-30.572-68.227-68.232 0-4.549.423-8.992 1.375-13.435v-.106c.211-1.692.529-3.385.846-5.078 0-.211.106-.528.106-.74.317-1.587.74-3.28 1.163-4.866.106-.317.212-.635.212-.952.423-1.587.952-3.174 1.375-4.655.106-.317.212-.529.317-.846.53-1.587 1.164-3.174 1.799-4.76 0-.106.105-.212.105-.318.635-1.48 1.27-2.962 2.01-4.443.106-.211.212-.423.317-.74a54.124 54.124 0 0 1 2.328-4.232c.211-.317.317-.529.529-.846.846-1.375 1.692-2.75 2.538-4.02.212-.212.318-.529.53-.74.951-1.376 1.903-2.645 2.855-4.02l.317-.318a51.758 51.758 0 0 1 3.068-3.702c.106-.212.318-.318.423-.53 1.058-1.163 2.222-2.432 3.28-3.49.21-.212.422-.423.634-.635 1.164-1.163 2.327-2.221 3.49-3.28.212-.21.424-.422.635-.634l3.808-3.173a1.46 1.46 0 0 1 .424-.318c1.269-.952 2.644-1.904 3.913-2.856.212-.106.318-.212.53-.317a56.974 56.974 0 0 1 4.23-2.645c.212-.106.53-.317.741-.423 1.375-.847 2.856-1.587 4.337-2.328.212-.105.529-.211.846-.423 1.481-.74 3.068-1.375 4.549-2.01 0 0 .105 0 .105-.105C29.83 8.06 0 42.442 0 82.958 0 128.763 37.234 166 83.037 166h1.904c1.375-.317 2.644-.741 4.02-1.058l.951-.317c1.375-.423 2.75-.847 4.02-1.375.106 0 .211-.106.317-.106 1.27-.423 2.433-.952 3.703-1.481.317-.212.634-.423.846-.529z"/></g></svg>